<mxfile host="Electron" modified="2025-08-31T03:26:12.181Z" agent="Mozilla/5.0 (Windows NT 10.0; Win64; x64) AppleWebKit/537.36 (KHTML, like Gecko) draw.io/22.0.3 Chrome/114.0.5735.289 Electron/25.8.4 Safari/537.36" etag="YSqwPk2wHZSN5YB_Yb7h" version="22.0.3" type="device">
  <diagram name="Page-1" id="74b105a0-9070-1c63-61bc-23e55f88626e">
    <mxGraphModel dx="2206" dy="1286" grid="1" gridSize="10" guides="1" tooltips="1" connect="1" arrows="1" fold="1" page="1" pageScale="1.5" pageWidth="1169" pageHeight="826" background="none" math="0" shadow="0">
      <root>
        <mxCell id="0" style=";html=1;" />
        <mxCell id="1" style=";html=1;" parent="0" />
        <mxCell id="10b056a9c633e61c-30" value="SDS&amp;nbsp;Architecture" style="text;strokeColor=none;fillColor=none;html=1;fontSize=24;fontStyle=1;verticalAlign=middle;align=center;" parent="1" vertex="1">
          <mxGeometry x="80" y="40" width="1590" height="40" as="geometry" />
        </mxCell>
        <mxCell id="SEwzsury6WMLYdR2JWKa-16" style="edgeStyle=orthogonalEdgeStyle;rounded=0;orthogonalLoop=1;jettySize=auto;html=1;entryX=0;entryY=0.5;entryDx=0;entryDy=0;" parent="1" source="SEwzsury6WMLYdR2JWKa-2" target="SEwzsury6WMLYdR2JWKa-5" edge="1">
          <mxGeometry relative="1" as="geometry" />
        </mxCell>
        <mxCell id="SEwzsury6WMLYdR2JWKa-2" value="" style="image;aspect=fixed;html=1;points=[];align=center;fontSize=12;image=img/lib/azure2/azure_stack/User_Subscriptions.svg;" parent="1" vertex="1">
          <mxGeometry x="73.79000000000003" y="440" width="82.42" height="80" as="geometry" />
        </mxCell>
        <mxCell id="SEwzsury6WMLYdR2JWKa-23" style="edgeStyle=orthogonalEdgeStyle;rounded=0;orthogonalLoop=1;jettySize=auto;html=1;" parent="1" source="SEwzsury6WMLYdR2JWKa-5" target="SEwzsury6WMLYdR2JWKa-21" edge="1">
          <mxGeometry relative="1" as="geometry">
            <Array as="points">
              <mxPoint x="390" y="603" />
              <mxPoint x="390" y="864" />
            </Array>
          </mxGeometry>
        </mxCell>
        <mxCell id="SEwzsury6WMLYdR2JWKa-5" value="Web App" style="rounded=0;whiteSpace=wrap;html=1;" parent="1" vertex="1">
          <mxGeometry x="250" y="538" width="90" height="130" as="geometry" />
        </mxCell>
        <mxCell id="SEwzsury6WMLYdR2JWKa-6" value="[User Upload]&#xa;     ↓&#xa;[Blob Storage]&#xa;     ↓&#xa;[Queue] ← (event trigger)&#xa;     ↓&#xa;[Extractor (OCR)]&#xa;     ↓&#xa;[Metadata Writer → DB + Outbox]&#xa;     ↓&#xa;[Indexer → ElasticSearch]" style="whiteSpace=wrap;html=1;" parent="1" vertex="1">
          <mxGeometry x="10" y="100" width="210" height="250" as="geometry" />
        </mxCell>
        <mxCell id="SEwzsury6WMLYdR2JWKa-15" style="edgeStyle=orthogonalEdgeStyle;rounded=0;orthogonalLoop=1;jettySize=auto;html=1;entryX=0;entryY=0.5;entryDx=0;entryDy=0;" parent="1" source="SEwzsury6WMLYdR2JWKa-7" target="SEwzsury6WMLYdR2JWKa-5" edge="1">
          <mxGeometry relative="1" as="geometry" />
        </mxCell>
        <mxCell id="SEwzsury6WMLYdR2JWKa-7" value="" style="image;aspect=fixed;html=1;points=[];align=center;fontSize=12;image=img/lib/azure2/azure_stack/User_Subscriptions.svg;" parent="1" vertex="1">
          <mxGeometry x="81" y="570" width="68" height="66" as="geometry" />
        </mxCell>
        <mxCell id="SEwzsury6WMLYdR2JWKa-17" style="edgeStyle=orthogonalEdgeStyle;rounded=0;orthogonalLoop=1;jettySize=auto;html=1;entryX=0;entryY=0.5;entryDx=0;entryDy=0;" parent="1" source="SEwzsury6WMLYdR2JWKa-8" target="SEwzsury6WMLYdR2JWKa-5" edge="1">
          <mxGeometry relative="1" as="geometry" />
        </mxCell>
        <mxCell id="SEwzsury6WMLYdR2JWKa-8" value="" style="image;aspect=fixed;html=1;points=[];align=center;fontSize=12;image=img/lib/azure2/azure_stack/User_Subscriptions.svg;" parent="1" vertex="1">
          <mxGeometry x="88" y="680" width="68" height="66" as="geometry" />
        </mxCell>
        <mxCell id="SEwzsury6WMLYdR2JWKa-9" value="Admin" style="text;html=1;align=center;verticalAlign=middle;resizable=0;points=[];autosize=1;strokeColor=none;fillColor=none;" parent="1" vertex="1">
          <mxGeometry x="5" y="478" width="60" height="30" as="geometry" />
        </mxCell>
        <mxCell id="SEwzsury6WMLYdR2JWKa-10" value="Uploader" style="text;html=1;align=center;verticalAlign=middle;resizable=0;points=[];autosize=1;strokeColor=none;fillColor=none;" parent="1" vertex="1">
          <mxGeometry x="3.79" y="605" width="70" height="30" as="geometry" />
        </mxCell>
        <mxCell id="SEwzsury6WMLYdR2JWKa-11" value="Reader" style="text;html=1;align=center;verticalAlign=middle;resizable=0;points=[];autosize=1;strokeColor=none;fillColor=none;" parent="1" vertex="1">
          <mxGeometry x="13.79" y="710" width="60" height="30" as="geometry" />
        </mxCell>
        <mxCell id="SEwzsury6WMLYdR2JWKa-31" style="edgeStyle=orthogonalEdgeStyle;rounded=0;orthogonalLoop=1;jettySize=auto;html=1;entryX=0.5;entryY=0;entryDx=0;entryDy=0;" parent="1" source="SEwzsury6WMLYdR2JWKa-20" target="SEwzsury6WMLYdR2JWKa-28" edge="1">
          <mxGeometry relative="1" as="geometry" />
        </mxCell>
        <mxCell id="SEwzsury6WMLYdR2JWKa-34" style="edgeStyle=orthogonalEdgeStyle;rounded=0;orthogonalLoop=1;jettySize=auto;html=1;" parent="1" source="SEwzsury6WMLYdR2JWKa-20" target="SEwzsury6WMLYdR2JWKa-35" edge="1">
          <mxGeometry relative="1" as="geometry">
            <mxPoint x="650" y="391" as="targetPoint" />
          </mxGeometry>
        </mxCell>
        <mxCell id="SEwzsury6WMLYdR2JWKa-52" style="edgeStyle=orthogonalEdgeStyle;rounded=0;orthogonalLoop=1;jettySize=auto;html=1;entryX=1;entryY=0;entryDx=0;entryDy=0;" parent="1" source="SEwzsury6WMLYdR2JWKa-20" target="SEwzsury6WMLYdR2JWKa-43" edge="1">
          <mxGeometry relative="1" as="geometry">
            <Array as="points">
              <mxPoint x="485" y="240" />
              <mxPoint x="1240" y="240" />
            </Array>
          </mxGeometry>
        </mxCell>
        <mxCell id="SEwzsury6WMLYdR2JWKa-20" value="" style="sketch=0;html=1;dashed=0;whitespace=wrap;fillColor=#2875E2;strokeColor=#ffffff;points=[[0.005,0.63,0],[0.1,0.2,0],[0.9,0.2,0],[0.5,0,0],[0.995,0.63,0],[0.72,0.99,0],[0.5,1,0],[0.28,0.99,0]];verticalLabelPosition=bottom;align=center;verticalAlign=top;shape=mxgraph.kubernetes.icon;prIcon=api" parent="1" vertex="1">
          <mxGeometry x="445" y="342" width="80" height="98" as="geometry" />
        </mxCell>
        <mxCell id="SEwzsury6WMLYdR2JWKa-32" style="edgeStyle=orthogonalEdgeStyle;rounded=0;orthogonalLoop=1;jettySize=auto;html=1;entryX=0.5;entryY=1;entryDx=0;entryDy=0;" parent="1" source="SEwzsury6WMLYdR2JWKa-21" target="SEwzsury6WMLYdR2JWKa-28" edge="1">
          <mxGeometry relative="1" as="geometry" />
        </mxCell>
        <mxCell id="SEwzsury6WMLYdR2JWKa-21" value="" style="sketch=0;html=1;dashed=0;whitespace=wrap;fillColor=#2875E2;strokeColor=#ffffff;points=[[0.005,0.63,0],[0.1,0.2,0],[0.9,0.2,0],[0.5,0,0],[0.995,0.63,0],[0.72,0.99,0],[0.5,1,0],[0.28,0.99,0]];verticalLabelPosition=bottom;align=center;verticalAlign=top;shape=mxgraph.kubernetes.icon;prIcon=api" parent="1" vertex="1">
          <mxGeometry x="440" y="820" width="90" height="88" as="geometry" />
        </mxCell>
        <mxCell id="SEwzsury6WMLYdR2JWKa-22" style="edgeStyle=orthogonalEdgeStyle;rounded=0;orthogonalLoop=1;jettySize=auto;html=1;entryX=0.005;entryY=0.63;entryDx=0;entryDy=0;entryPerimeter=0;" parent="1" source="SEwzsury6WMLYdR2JWKa-5" target="SEwzsury6WMLYdR2JWKa-20" edge="1">
          <mxGeometry relative="1" as="geometry">
            <Array as="points">
              <mxPoint x="390" y="603" />
              <mxPoint x="390" y="404" />
            </Array>
          </mxGeometry>
        </mxCell>
        <mxCell id="SEwzsury6WMLYdR2JWKa-24" value="&lt;p style=&quot;line-height: 120%;&quot;&gt;&lt;font style=&quot;font-size: 17px;&quot;&gt;Search API&lt;/font&gt;&lt;/p&gt;" style="text;html=1;align=center;verticalAlign=middle;resizable=0;points=[];autosize=1;strokeColor=none;fillColor=none;" parent="1" vertex="1">
          <mxGeometry x="335" y="320" width="110" height="50" as="geometry" />
        </mxCell>
        <mxCell id="SEwzsury6WMLYdR2JWKa-25" value="&lt;p style=&quot;line-height: 120%;&quot;&gt;&lt;font style=&quot;font-size: 17px;&quot;&gt;Upload API (Presigned URLs)&lt;/font&gt;&lt;/p&gt;" style="text;html=1;align=center;verticalAlign=middle;resizable=0;points=[];autosize=1;strokeColor=none;fillColor=none;" parent="1" vertex="1">
          <mxGeometry x="360" y="920" width="250" height="50" as="geometry" />
        </mxCell>
        <mxCell id="SEwzsury6WMLYdR2JWKa-30" style="edgeStyle=orthogonalEdgeStyle;rounded=0;orthogonalLoop=1;jettySize=auto;html=1;" parent="1" source="SEwzsury6WMLYdR2JWKa-28" target="SEwzsury6WMLYdR2JWKa-20" edge="1">
          <mxGeometry relative="1" as="geometry" />
        </mxCell>
        <mxCell id="SEwzsury6WMLYdR2JWKa-28" value="RBAC Service" style="shape=parallelogram;perimeter=parallelogramPerimeter;whiteSpace=wrap;html=1;fixedSize=1;" parent="1" vertex="1">
          <mxGeometry x="425" y="570" width="120" height="50" as="geometry" />
        </mxCell>
        <mxCell id="SEwzsury6WMLYdR2JWKa-33" style="edgeStyle=orthogonalEdgeStyle;rounded=0;orthogonalLoop=1;jettySize=auto;html=1;entryX=0.5;entryY=0;entryDx=0;entryDy=0;entryPerimeter=0;" parent="1" source="SEwzsury6WMLYdR2JWKa-28" target="SEwzsury6WMLYdR2JWKa-21" edge="1">
          <mxGeometry relative="1" as="geometry" />
        </mxCell>
        <mxCell id="SEwzsury6WMLYdR2JWKa-35" value="secondary index (Elastic/OpenSearch/Azure AI Search)" style="ellipse;whiteSpace=wrap;html=1;" parent="1" vertex="1">
          <mxGeometry x="590" y="351" width="170" height="79" as="geometry" />
        </mxCell>
        <mxCell id="SEwzsury6WMLYdR2JWKa-37" style="edgeStyle=orthogonalEdgeStyle;rounded=0;orthogonalLoop=1;jettySize=auto;html=1;" parent="1" source="SEwzsury6WMLYdR2JWKa-36" edge="1">
          <mxGeometry relative="1" as="geometry">
            <mxPoint x="920" y="595" as="targetPoint" />
          </mxGeometry>
        </mxCell>
        <mxCell id="SEwzsury6WMLYdR2JWKa-36" value="" style="outlineConnect=0;dashed=0;verticalLabelPosition=bottom;verticalAlign=top;align=center;html=1;shape=mxgraph.aws3.queue;fillColor=#D9A741;gradientColor=none;" parent="1" vertex="1">
          <mxGeometry x="650" y="560" width="160" height="70" as="geometry" />
        </mxCell>
        <mxCell id="SEwzsury6WMLYdR2JWKa-38" value="listen to any file uploaded" style="whiteSpace=wrap;html=1;" parent="1" vertex="1">
          <mxGeometry x="650" y="490" width="160" height="60" as="geometry" />
        </mxCell>
        <mxCell id="SEwzsury6WMLYdR2JWKa-42" style="edgeStyle=orthogonalEdgeStyle;rounded=0;orthogonalLoop=1;jettySize=auto;html=1;" parent="1" source="SEwzsury6WMLYdR2JWKa-40" edge="1">
          <mxGeometry relative="1" as="geometry">
            <mxPoint x="1120" y="591" as="targetPoint" />
          </mxGeometry>
        </mxCell>
        <mxCell id="SEwzsury6WMLYdR2JWKa-40" value="" style="sketch=0;points=[[0,0,0],[0.25,0,0],[0.5,0,0],[0.75,0,0],[1,0,0],[0,1,0],[0.25,1,0],[0.5,1,0],[0.75,1,0],[1,1,0],[0,0.25,0],[0,0.5,0],[0,0.75,0],[1,0.25,0],[1,0.5,0],[1,0.75,0]];outlineConnect=0;fontColor=#232F3E;fillColor=#01A88D;strokeColor=#ffffff;dashed=0;verticalLabelPosition=bottom;verticalAlign=top;align=center;html=1;fontSize=12;fontStyle=0;aspect=fixed;shape=mxgraph.aws4.resourceIcon;resIcon=mxgraph.aws4.neuron_ml_sdk;" parent="1" vertex="1">
          <mxGeometry x="920" y="552" width="78" height="78" as="geometry" />
        </mxCell>
        <mxCell id="SEwzsury6WMLYdR2JWKa-41" value="Extractor" style="whiteSpace=wrap;html=1;" parent="1" vertex="1">
          <mxGeometry x="877" y="490" width="160" height="60" as="geometry" />
        </mxCell>
        <mxCell id="SEwzsury6WMLYdR2JWKa-44" style="edgeStyle=orthogonalEdgeStyle;rounded=0;orthogonalLoop=1;jettySize=auto;html=1;" parent="1" source="SEwzsury6WMLYdR2JWKa-43" edge="1">
          <mxGeometry relative="1" as="geometry">
            <mxPoint x="1179.9999999999995" y="800" as="targetPoint" />
          </mxGeometry>
        </mxCell>
        <mxCell id="SEwzsury6WMLYdR2JWKa-50" style="edgeStyle=orthogonalEdgeStyle;rounded=0;orthogonalLoop=1;jettySize=auto;html=1;entryX=1;entryY=0.5;entryDx=0;entryDy=0;" parent="1" source="WTbgr8FpglmhFGH7QNS--8" target="SEwzsury6WMLYdR2JWKa-35" edge="1">
          <mxGeometry relative="1" as="geometry">
            <Array as="points" />
          </mxGeometry>
        </mxCell>
        <mxCell id="SEwzsury6WMLYdR2JWKa-43" value="Metadata Writer" style="shape=parallelogram;perimeter=parallelogramPerimeter;whiteSpace=wrap;html=1;fixedSize=1;" parent="1" vertex="1">
          <mxGeometry x="1120" y="560" width="120" height="50" as="geometry" />
        </mxCell>
        <mxCell id="SEwzsury6WMLYdR2JWKa-49" value="RDBMS" style="strokeWidth=2;html=1;shape=mxgraph.flowchart.database;whiteSpace=wrap;" parent="1" vertex="1">
          <mxGeometry x="1130" y="800" width="100" height="120" as="geometry" />
        </mxCell>
        <mxCell id="WTbgr8FpglmhFGH7QNS--10" value="" style="edgeStyle=orthogonalEdgeStyle;rounded=0;orthogonalLoop=1;jettySize=auto;html=1;entryX=1;entryY=0.5;entryDx=0;entryDy=0;" edge="1" parent="1" source="SEwzsury6WMLYdR2JWKa-43" target="WTbgr8FpglmhFGH7QNS--8">
          <mxGeometry relative="1" as="geometry">
            <Array as="points">
              <mxPoint x="1180" y="390" />
            </Array>
            <mxPoint x="1180" y="560" as="sourcePoint" />
            <mxPoint x="760" y="391" as="targetPoint" />
          </mxGeometry>
        </mxCell>
        <mxCell id="WTbgr8FpglmhFGH7QNS--8" value="OutboxPattern" style="strokeWidth=2;html=1;shape=mxgraph.flowchart.database;whiteSpace=wrap;" vertex="1" parent="1">
          <mxGeometry x="950" y="350" width="100" height="80" as="geometry" />
        </mxCell>
      </root>
    </mxGraphModel>
  </diagram>
</mxfile>
